<mxfile host="app.diagrams.net" modified="2022-11-29T01:17:18.970Z" agent="5.0 (Windows NT 10.0; Win64; x64) AppleWebKit/537.36 (KHTML, like Gecko) Chrome/107.0.0.0 Safari/537.36" version="20.6.0" etag="KQHH_JqHYTDpyrPAaOo-" type="github">
  <diagram id="4drAjoyHFCW3cGQYs2EF" name="PÃ¡gina-1">
    <mxGraphModel dx="1108" dy="571" grid="1" gridSize="10" guides="1" tooltips="1" connect="1" arrows="1" fold="1" page="1" pageScale="1" pageWidth="827" pageHeight="1169" math="0" shadow="0">
      <root>
        <mxCell id="0" />
        <mxCell id="1" parent="0" />
        <mxCell id="Wdtr0f-WsstvAFW3iBQM-5" value="" style="edgeStyle=orthogonalEdgeStyle;rounded=0;orthogonalLoop=1;jettySize=auto;html=1;" edge="1" parent="1" source="Wdtr0f-WsstvAFW3iBQM-1" target="Wdtr0f-WsstvAFW3iBQM-2">
          <mxGeometry relative="1" as="geometry" />
        </mxCell>
        <mxCell id="Wdtr0f-WsstvAFW3iBQM-1" value="START" style="rounded=1;whiteSpace=wrap;html=1;" vertex="1" parent="1">
          <mxGeometry x="190" width="170" height="60" as="geometry" />
        </mxCell>
        <mxCell id="Wdtr0f-WsstvAFW3iBQM-2" value="Bowl, Water,Cereal and Milk" style="shape=parallelogram;perimeter=parallelogramPerimeter;whiteSpace=wrap;html=1;fixedSize=1;" vertex="1" parent="1">
          <mxGeometry x="180" y="110" width="190" height="80" as="geometry" />
        </mxCell>
        <mxCell id="Wdtr0f-WsstvAFW3iBQM-3" value="" style="endArrow=classic;html=1;rounded=0;entryX=0.5;entryY=0;entryDx=0;entryDy=0;" edge="1" parent="1" source="Wdtr0f-WsstvAFW3iBQM-1" target="Wdtr0f-WsstvAFW3iBQM-2">
          <mxGeometry width="50" height="50" relative="1" as="geometry">
            <mxPoint x="420" y="300" as="sourcePoint" />
            <mxPoint x="470" y="250" as="targetPoint" />
          </mxGeometry>
        </mxCell>
        <mxCell id="Wdtr0f-WsstvAFW3iBQM-4" value="are there Water?" style="rhombus;whiteSpace=wrap;html=1;" vertex="1" parent="1">
          <mxGeometry x="175" y="240" width="190" height="160" as="geometry" />
        </mxCell>
        <mxCell id="Wdtr0f-WsstvAFW3iBQM-8" value="YES&lt;br&gt;" style="endArrow=classic;html=1;rounded=0;exitX=1;exitY=0.5;exitDx=0;exitDy=0;" edge="1" parent="1" source="Wdtr0f-WsstvAFW3iBQM-4">
          <mxGeometry relative="1" as="geometry">
            <mxPoint x="370" y="320" as="sourcePoint" />
            <mxPoint x="510" y="320" as="targetPoint" />
          </mxGeometry>
        </mxCell>
        <mxCell id="Wdtr0f-WsstvAFW3iBQM-10" value="NO&lt;br&gt;" style="endArrow=classic;html=1;rounded=0;" edge="1" parent="1">
          <mxGeometry relative="1" as="geometry">
            <mxPoint x="270" y="400" as="sourcePoint" />
            <mxPoint x="270" y="490" as="targetPoint" />
          </mxGeometry>
        </mxCell>
        <mxCell id="Wdtr0f-WsstvAFW3iBQM-12" value="" style="endArrow=classic;html=1;rounded=0;exitX=0.468;exitY=1;exitDx=0;exitDy=0;exitPerimeter=0;" edge="1" parent="1" source="Wdtr0f-WsstvAFW3iBQM-2" target="Wdtr0f-WsstvAFW3iBQM-4">
          <mxGeometry width="50" height="50" relative="1" as="geometry">
            <mxPoint x="270" y="200" as="sourcePoint" />
            <mxPoint x="590" y="240" as="targetPoint" />
          </mxGeometry>
        </mxCell>
        <mxCell id="Wdtr0f-WsstvAFW3iBQM-13" value="TO BUY WATER" style="rounded=0;whiteSpace=wrap;html=1;" vertex="1" parent="1">
          <mxGeometry x="170" y="490" width="200" height="80" as="geometry" />
        </mxCell>
        <mxCell id="Wdtr0f-WsstvAFW3iBQM-14" value="are there Cereal?" style="rhombus;whiteSpace=wrap;html=1;" vertex="1" parent="1">
          <mxGeometry x="510" y="240" width="170" height="160" as="geometry" />
        </mxCell>
        <mxCell id="Wdtr0f-WsstvAFW3iBQM-15" value="NO&lt;br&gt;" style="endArrow=classic;html=1;rounded=0;exitX=0.5;exitY=1;exitDx=0;exitDy=0;" edge="1" parent="1" source="Wdtr0f-WsstvAFW3iBQM-14">
          <mxGeometry relative="1" as="geometry">
            <mxPoint x="530" y="450" as="sourcePoint" />
            <mxPoint x="595" y="490" as="targetPoint" />
          </mxGeometry>
        </mxCell>
        <mxCell id="Wdtr0f-WsstvAFW3iBQM-16" value="TO BUY CEREAL" style="rounded=0;whiteSpace=wrap;html=1;" vertex="1" parent="1">
          <mxGeometry x="510" y="490" width="180" height="80" as="geometry" />
        </mxCell>
        <mxCell id="Wdtr0f-WsstvAFW3iBQM-19" value="YES&lt;br&gt;" style="endArrow=classic;html=1;rounded=0;exitX=1;exitY=0.5;exitDx=0;exitDy=0;" edge="1" parent="1" source="Wdtr0f-WsstvAFW3iBQM-14">
          <mxGeometry relative="1" as="geometry">
            <mxPoint x="750" y="319.5" as="sourcePoint" />
            <mxPoint x="820" y="320" as="targetPoint" />
          </mxGeometry>
        </mxCell>
        <mxCell id="Wdtr0f-WsstvAFW3iBQM-21" value="are there Milk?" style="rhombus;whiteSpace=wrap;html=1;" vertex="1" parent="1">
          <mxGeometry x="820" y="240" width="180" height="160" as="geometry" />
        </mxCell>
        <mxCell id="Wdtr0f-WsstvAFW3iBQM-22" value="NO&lt;br&gt;" style="endArrow=classic;html=1;rounded=0;exitX=0.5;exitY=1;exitDx=0;exitDy=0;entryX=0.48;entryY=0;entryDx=0;entryDy=0;entryPerimeter=0;" edge="1" parent="1" source="Wdtr0f-WsstvAFW3iBQM-21" target="Wdtr0f-WsstvAFW3iBQM-23">
          <mxGeometry relative="1" as="geometry">
            <mxPoint x="605" y="410" as="sourcePoint" />
            <mxPoint x="910" y="500" as="targetPoint" />
          </mxGeometry>
        </mxCell>
        <mxCell id="Wdtr0f-WsstvAFW3iBQM-40" style="edgeStyle=orthogonalEdgeStyle;rounded=0;orthogonalLoop=1;jettySize=auto;html=1;exitX=0.5;exitY=1;exitDx=0;exitDy=0;entryX=0;entryY=0.5;entryDx=0;entryDy=0;" edge="1" parent="1" source="Wdtr0f-WsstvAFW3iBQM-23" target="Wdtr0f-WsstvAFW3iBQM-4">
          <mxGeometry relative="1" as="geometry">
            <Array as="points">
              <mxPoint x="914" y="620" />
              <mxPoint x="120" y="620" />
              <mxPoint x="120" y="320" />
            </Array>
          </mxGeometry>
        </mxCell>
        <mxCell id="Wdtr0f-WsstvAFW3iBQM-23" value="TO BUY MILK" style="rounded=0;whiteSpace=wrap;html=1;" vertex="1" parent="1">
          <mxGeometry x="827" y="490" width="173" height="80" as="geometry" />
        </mxCell>
        <mxCell id="Wdtr0f-WsstvAFW3iBQM-24" value="MIxing the Ingredients" style="rounded=0;whiteSpace=wrap;html=1;" vertex="1" parent="1">
          <mxGeometry x="1065" y="275" width="173" height="90" as="geometry" />
        </mxCell>
        <mxCell id="Wdtr0f-WsstvAFW3iBQM-27" value="SERVE" style="rounded=0;whiteSpace=wrap;html=1;" vertex="1" parent="1">
          <mxGeometry x="1067.5" y="422" width="173" height="90" as="geometry" />
        </mxCell>
        <mxCell id="Wdtr0f-WsstvAFW3iBQM-28" value="YES&lt;br&gt;" style="endArrow=classic;html=1;rounded=0;" edge="1" parent="1">
          <mxGeometry relative="1" as="geometry">
            <mxPoint x="1000" y="320" as="sourcePoint" />
            <mxPoint x="1060" y="320" as="targetPoint" />
          </mxGeometry>
        </mxCell>
        <mxCell id="Wdtr0f-WsstvAFW3iBQM-30" value="" style="endArrow=classic;html=1;rounded=0;entryX=0.448;entryY=-0.011;entryDx=0;entryDy=0;exitX=0.462;exitY=1.022;exitDx=0;exitDy=0;entryPerimeter=0;exitPerimeter=0;" edge="1" parent="1" source="Wdtr0f-WsstvAFW3iBQM-24" target="Wdtr0f-WsstvAFW3iBQM-27">
          <mxGeometry width="50" height="50" relative="1" as="geometry">
            <mxPoint x="1238" y="325" as="sourcePoint" />
            <mxPoint x="1288" y="275" as="targetPoint" />
          </mxGeometry>
        </mxCell>
        <mxCell id="Wdtr0f-WsstvAFW3iBQM-31" value="EAT" style="rounded=0;whiteSpace=wrap;html=1;" vertex="1" parent="1">
          <mxGeometry x="1067.5" y="570" width="173" height="90" as="geometry" />
        </mxCell>
        <mxCell id="Wdtr0f-WsstvAFW3iBQM-32" value="" style="endArrow=classic;html=1;rounded=0;exitX=0.5;exitY=1;exitDx=0;exitDy=0;entryX=0.5;entryY=0;entryDx=0;entryDy=0;" edge="1" parent="1" source="Wdtr0f-WsstvAFW3iBQM-27" target="Wdtr0f-WsstvAFW3iBQM-31">
          <mxGeometry width="50" height="50" relative="1" as="geometry">
            <mxPoint x="1250" y="420" as="sourcePoint" />
            <mxPoint x="1300" y="370" as="targetPoint" />
          </mxGeometry>
        </mxCell>
        <mxCell id="Wdtr0f-WsstvAFW3iBQM-33" value="END" style="rounded=0;whiteSpace=wrap;html=1;" vertex="1" parent="1">
          <mxGeometry x="1310" y="570" width="180" height="90" as="geometry" />
        </mxCell>
        <mxCell id="Wdtr0f-WsstvAFW3iBQM-34" value="" style="endArrow=classic;html=1;rounded=0;exitX=1;exitY=0.5;exitDx=0;exitDy=0;" edge="1" parent="1" source="Wdtr0f-WsstvAFW3iBQM-31" target="Wdtr0f-WsstvAFW3iBQM-33">
          <mxGeometry width="50" height="50" relative="1" as="geometry">
            <mxPoint x="1400" y="490" as="sourcePoint" />
            <mxPoint x="1450" y="440" as="targetPoint" />
          </mxGeometry>
        </mxCell>
        <mxCell id="Wdtr0f-WsstvAFW3iBQM-42" value="" style="endArrow=none;html=1;rounded=0;entryX=0.5;entryY=1;entryDx=0;entryDy=0;" edge="1" parent="1" target="Wdtr0f-WsstvAFW3iBQM-13">
          <mxGeometry width="50" height="50" relative="1" as="geometry">
            <mxPoint x="270" y="620" as="sourcePoint" />
            <mxPoint x="300" y="570" as="targetPoint" />
          </mxGeometry>
        </mxCell>
        <mxCell id="Wdtr0f-WsstvAFW3iBQM-43" value="" style="endArrow=none;html=1;rounded=0;" edge="1" parent="1">
          <mxGeometry width="50" height="50" relative="1" as="geometry">
            <mxPoint x="600" y="620" as="sourcePoint" />
            <mxPoint x="600" y="570" as="targetPoint" />
          </mxGeometry>
        </mxCell>
      </root>
    </mxGraphModel>
  </diagram>
</mxfile>
